<svg xmlns="http://www.w3.org/2000/svg" xmlns:xlink="http://www.w3.org/1999/xlink" width="500" zoomAndPan="magnify" viewBox="0 0 375 374.999991" height="500" preserveAspectRatio="xMidYMid meet" version="1.0"><defs><g/><clipPath id="8674905817"><path d="M 68.746094 72.921875 L 298.667969 72.921875 L 298.667969 302.84375 L 68.746094 302.84375 Z M 68.746094 72.921875 " clip-rule="nonzero"/></clipPath><clipPath id="d8d77c48bc"><path d="M 183.707031 72.921875 C 120.214844 72.921875 68.746094 124.390625 68.746094 187.882812 C 68.746094 251.375 120.214844 302.84375 183.707031 302.84375 C 247.199219 302.84375 298.667969 251.375 298.667969 187.882812 C 298.667969 124.390625 247.199219 72.921875 183.707031 72.921875 Z M 183.707031 72.921875 " clip-rule="nonzero"/></clipPath><clipPath id="894d20fcd6"><path d="M 0.746094 0.921875 L 230.667969 0.921875 L 230.667969 230.84375 L 0.746094 230.84375 Z M 0.746094 0.921875 " clip-rule="nonzero"/></clipPath><clipPath id="5855602096"><path d="M 115.707031 0.921875 C 52.214844 0.921875 0.746094 52.390625 0.746094 115.882812 C 0.746094 179.375 52.214844 230.84375 115.707031 230.84375 C 179.199219 230.84375 230.667969 179.375 230.667969 115.882812 C 230.667969 52.390625 179.199219 0.921875 115.707031 0.921875 Z M 115.707031 0.921875 " clip-rule="nonzero"/></clipPath><clipPath id="05da261f69"><rect x="0" width="231" y="0" height="231"/></clipPath></defs><g clip-path="url(#8674905817)"><g clip-path="url(#d8d77c48bc)"><g transform="matrix(1, 0, 0, 1, 68, 72)"><g clip-path="url(#05da261f69)"><g clip-path="url(#894d20fcd6)"><g clip-path="url(#5855602096)"><path fill="#d2d2d8" d="M 0.746094 0.921875 L 230.667969 0.921875 L 230.667969 230.84375 L 0.746094 230.84375 Z M 0.746094 0.921875 " fill-opacity="1" fill-rule="nonzero"/></g></g></g></g></g></g><g fill="#070472" fill-opacity="1"><g transform="translate(134.63437, 266.383319)"><g><path d="M -9.21875 -79.5625 C -12.5 -83.476562 -14.140625 -87.367188 -14.140625 -91.234375 C -14.140625 -95.097656 -13.238281 -98.429688 -11.4375 -101.234375 C -9.632812 -104.035156 -6.722656 -106.414062 -2.703125 -108.375 C 1.316406 -110.332031 5.867188 -111.3125 10.953125 -111.3125 L 76.0625 -111.3125 C 79.34375 -111.3125 82.96875 -111.628906 86.9375 -112.265625 C 90.90625 -112.898438 93.6875 -113.535156 95.28125 -114.171875 L 95.28125 -94.171875 L 93.6875 -94.328125 L 93.6875 -97.03125 C 93.6875 -99.570312 92.785156 -101.765625 90.984375 -103.609375 C 89.179688 -105.460938 87.066406 -106.441406 84.640625 -106.546875 L 54.46875 -106.546875 L 54.46875 -11.4375 C 54.570312 -7.625 56.265625 -4.765625 59.546875 -2.859375 C 61.128906 -2.015625 62.820312 -1.59375 64.625 -1.59375 L 66.6875 -1.59375 L 66.6875 0 L 31.921875 0 L 31.921875 -1.59375 L 33.984375 -1.59375 C 36.734375 -1.59375 39.085938 -2.539062 41.046875 -4.4375 C 43.003906 -6.34375 44.035156 -8.625 44.140625 -11.28125 L 44.140625 -106.546875 L 10.953125 -106.546875 C 2.484375 -106.546875 -3.65625 -103.847656 -7.46875 -98.453125 C -9.476562 -95.703125 -10.484375 -92.816406 -10.484375 -89.796875 C -10.484375 -86.785156 -9.632812 -83.632812 -7.9375 -80.34375 Z M -9.21875 -79.5625 "/></g></g></g><g fill="#070472" fill-opacity="1"><g transform="translate(94.014255, 235.88332)"><g><path d="M 18.890625 -42.234375 C 13.390625 -35.035156 10.640625 -27.253906 10.640625 -18.890625 C 10.640625 -8.941406 14.820312 -1.21875 23.1875 4.28125 C 28.050781 7.5625 33.578125 9.203125 39.765625 9.203125 C 45.960938 9.203125 51.335938 7.988281 55.890625 5.5625 C 64.472656 1.113281 69.289062 -6.347656 70.34375 -16.828125 C 70.445312 -17.566406 70.5 -18.3125 70.5 -19.0625 C 70.5 -22.976562 69.414062 -27.210938 67.25 -31.765625 C 65.082031 -36.316406 61.5625 -40.492188 56.6875 -44.296875 L 28.109375 -66.859375 C 21.859375 -71.722656 18.734375 -78.019531 18.734375 -85.75 C 18.734375 -93.476562 21.222656 -100.015625 26.203125 -105.359375 C 31.179688 -110.703125 37.90625 -113.375 46.375 -113.375 C 50.601562 -113.375 55.207031 -112.847656 60.1875 -111.796875 L 66.53125 -111.796875 L 66.859375 -92.265625 L 65.265625 -92.265625 C 65.160156 -97.347656 63.332031 -101.34375 59.78125 -104.25 C 56.238281 -107.15625 51.789062 -108.609375 46.4375 -108.609375 C 41.09375 -108.609375 36.617188 -106.835938 33.015625 -103.296875 C 29.421875 -99.753906 27.625 -95.203125 27.625 -89.640625 C 27.625 -84.078125 29.957031 -79.445312 34.625 -75.75 L 64 -52.5625 C 75.644531 -43.351562 81.46875 -32.238281 81.46875 -19.21875 C 81.46875 -9.476562 77.601562 -1.113281 69.875 5.875 C 63.195312 11.90625 54.300781 14.921875 43.1875 14.921875 C 36.414062 14.921875 30.382812 13.648438 25.09375 11.109375 C 15.132812 6.453125 9.148438 -1.484375 7.140625 -12.703125 C 6.828125 -14.398438 6.671875 -16.546875 6.671875 -19.140625 C 6.671875 -21.734375 7.410156 -25.273438 8.890625 -29.765625 C 10.367188 -34.265625 13.226562 -38.789062 17.46875 -43.34375 Z M 18.890625 -42.234375 "/></g></g></g><g fill="#070472" fill-opacity="1"><g transform="translate(106.484507, 127.078287)"><g><path d="M 3.734375 -6.421875 C 3.921875 -5.859375 3.9375 -5.285156 3.78125 -4.703125 C 3.625 -4.128906 3.328125 -3.597656 2.890625 -3.109375 C 2.359375 -2.515625 1.796875 -2.109375 1.203125 -1.890625 C 0.609375 -1.679688 0.00390625 -1.648438 -0.609375 -1.796875 C -1.234375 -1.941406 -1.835938 -2.28125 -2.421875 -2.8125 C -3.035156 -3.351562 -3.457031 -3.953125 -3.6875 -4.609375 C -3.925781 -5.265625 -3.976562 -5.925781 -3.84375 -6.59375 C -3.71875 -7.257812 -3.394531 -7.882812 -2.875 -8.46875 C -2.4375 -8.957031 -1.960938 -9.289062 -1.453125 -9.46875 C -0.941406 -9.65625 -0.398438 -9.703125 0.171875 -9.609375 L 0.0625 -8.28125 C -0.351562 -8.375 -0.722656 -8.359375 -1.046875 -8.234375 C -1.378906 -8.109375 -1.675781 -7.90625 -1.9375 -7.625 C -2.257812 -7.257812 -2.457031 -6.859375 -2.53125 -6.421875 C -2.601562 -5.984375 -2.550781 -5.539062 -2.375 -5.09375 C -2.207031 -4.65625 -1.914062 -4.253906 -1.5 -3.890625 C -0.90625 -3.347656 -0.304688 -3.085938 0.296875 -3.109375 C 0.910156 -3.128906 1.460938 -3.414062 1.953125 -3.96875 C 2.222656 -4.269531 2.40625 -4.613281 2.5 -5 C 2.59375 -5.382812 2.566406 -5.78125 2.421875 -6.1875 Z M 3.734375 -6.421875 "/></g></g></g><g fill="#070472" fill-opacity="1"><g transform="translate(114.755597, 118.19275)"><g><path d="M 3.234375 -2.6875 C 2.648438 -2.175781 2.050781 -1.847656 1.4375 -1.703125 C 0.820312 -1.566406 0.21875 -1.613281 -0.375 -1.84375 C -0.976562 -2.070312 -1.539062 -2.488281 -2.0625 -3.09375 C -2.59375 -3.695312 -2.941406 -4.335938 -3.109375 -5.015625 C -3.273438 -5.691406 -3.253906 -6.347656 -3.046875 -6.984375 C -2.835938 -7.628906 -2.4375 -8.210938 -1.84375 -8.734375 C -1.3125 -9.191406 -0.738281 -9.472656 -0.125 -9.578125 C 0.476562 -9.691406 1.078125 -9.632812 1.671875 -9.40625 C 2.273438 -9.175781 2.828125 -8.773438 3.328125 -8.203125 C 3.867188 -7.585938 4.21875 -6.941406 4.375 -6.265625 C 4.53125 -5.585938 4.507812 -4.9375 4.3125 -4.3125 C 4.125 -3.695312 3.765625 -3.15625 3.234375 -2.6875 Z M 2.359375 -3.609375 C 2.703125 -3.910156 2.929688 -4.257812 3.046875 -4.65625 C 3.171875 -5.050781 3.171875 -5.472656 3.046875 -5.921875 C 2.921875 -6.367188 2.660156 -6.816406 2.265625 -7.265625 C 1.765625 -7.847656 1.210938 -8.179688 0.609375 -8.265625 C 0.015625 -8.359375 -0.523438 -8.1875 -1.015625 -7.75 C -1.367188 -7.445312 -1.609375 -7.085938 -1.734375 -6.671875 C -1.859375 -6.253906 -1.859375 -5.816406 -1.734375 -5.359375 C -1.617188 -4.910156 -1.378906 -4.472656 -1.015625 -4.046875 C -0.472656 -3.429688 0.09375 -3.085938 0.6875 -3.015625 C 1.28125 -2.953125 1.835938 -3.148438 2.359375 -3.609375 Z M 2.359375 -3.609375 "/></g></g></g><g fill="#070472" fill-opacity="1"><g transform="translate(124.984364, 109.695834)"><g><path d="M 0.65625 -0.4375 L -3.609375 -6.8125 L -1.71875 -8.078125 C -0.476562 -8.898438 0.632812 -9.257812 1.625 -9.15625 C 2.625 -9.050781 3.472656 -8.472656 4.171875 -7.421875 C 4.597656 -6.785156 4.832031 -6.128906 4.875 -5.453125 C 4.914062 -4.785156 4.765625 -4.144531 4.421875 -3.53125 C 4.085938 -2.925781 3.578125 -2.390625 2.890625 -1.921875 Z M 1.125 -2.25 L 2.140625 -2.921875 C 2.898438 -3.421875 3.351562 -3.984375 3.5 -4.609375 C 3.65625 -5.234375 3.5 -5.894531 3.03125 -6.59375 C 2.539062 -7.320312 1.972656 -7.734375 1.328125 -7.828125 C 0.691406 -7.921875 -0.0351562 -7.691406 -0.859375 -7.140625 L -1.75 -6.5625 Z M 1.125 -2.25 "/></g></g></g><g fill="#070472" fill-opacity="1"><g transform="translate(136.00301, 102.761736)"><g><path d="M 2.171875 -8.34375 L -1 -6.71875 L -0.109375 -4.96875 L 2.921875 -6.515625 L 3.46875 -5.421875 L 0.4375 -3.875 L 1.375 -2.046875 L 4.671875 -3.734375 L 5.125 -2.609375 L 0.703125 -0.359375 L -2.765625 -7.203125 L 1.625 -9.4375 Z M 2.171875 -8.34375 "/></g></g></g><g fill="#070472" fill-opacity="1"><g transform="translate(146.064342, 98.003997)"><g/></g></g><g fill="#070472" fill-opacity="1"><g transform="translate(153.306793, 95.344484)"><g><path d="M 1.25 -0.28125 C 0.988281 -0.195312 0.75 -0.210938 0.53125 -0.328125 C 0.320312 -0.453125 0.179688 -0.632812 0.109375 -0.875 C 0.0351562 -1.113281 0.0507812 -1.335938 0.15625 -1.546875 C 0.269531 -1.753906 0.457031 -1.898438 0.71875 -1.984375 C 0.988281 -2.066406 1.226562 -2.050781 1.4375 -1.9375 C 1.65625 -1.832031 1.800781 -1.660156 1.875 -1.421875 C 1.945312 -1.179688 1.925781 -0.953125 1.8125 -0.734375 C 1.707031 -0.515625 1.519531 -0.363281 1.25 -0.28125 Z M 1.25 -0.28125 "/></g></g></g><g fill="#070472" fill-opacity="1"><g transform="translate(160.59219, 93.222794)"><g><path d="M 0.765625 -0.15625 L -0.796875 -7.671875 L 1.703125 -8.203125 C 2.660156 -8.398438 3.425781 -8.375 4 -8.125 C 4.582031 -7.875 4.941406 -7.414062 5.078125 -6.75 C 5.148438 -6.382812 5.128906 -6.039062 5.015625 -5.71875 C 4.898438 -5.394531 4.703125 -5.125 4.421875 -4.90625 C 4.796875 -4.84375 5.113281 -4.679688 5.375 -4.421875 C 5.644531 -4.171875 5.816406 -3.851562 5.890625 -3.46875 C 6.023438 -2.8125 5.890625 -2.238281 5.484375 -1.75 C 5.078125 -1.257812 4.453125 -0.925781 3.609375 -0.75 Z M 1.953125 -7.0625 L 0.78125 -6.8125 L 1.203125 -4.78125 L 2.359375 -5.03125 C 2.890625 -5.132812 3.265625 -5.296875 3.484375 -5.515625 C 3.710938 -5.734375 3.789062 -6.03125 3.71875 -6.40625 C 3.644531 -6.75 3.46875 -6.972656 3.1875 -7.078125 C 2.90625 -7.179688 2.492188 -7.175781 1.953125 -7.0625 Z M 1.875 -1.546875 L 3.34375 -1.859375 C 3.769531 -1.941406 4.085938 -2.09375 4.296875 -2.3125 C 4.515625 -2.539062 4.585938 -2.835938 4.515625 -3.203125 C 4.367188 -3.890625 3.820312 -4.132812 2.875 -3.9375 L 1.4375 -3.640625 Z M 1.875 -1.546875 "/></g></g></g><g fill="#070472" fill-opacity="1"><g transform="translate(172.167328, 91.077965)"><g><path d="M 5.234375 -8.140625 L 6.609375 -8.25 L 6.953125 -4.171875 C 7.023438 -3.410156 6.957031 -2.742188 6.75 -2.171875 C 6.550781 -1.609375 6.222656 -1.160156 5.765625 -0.828125 C 5.304688 -0.492188 4.734375 -0.300781 4.046875 -0.25 C 2.953125 -0.15625 2.109375 -0.359375 1.515625 -0.859375 C 0.921875 -1.367188 0.578125 -2.179688 0.484375 -3.296875 L 0.109375 -7.703125 L 1.515625 -7.828125 L 1.875 -3.53125 C 1.9375 -2.769531 2.132812 -2.226562 2.46875 -1.90625 C 2.8125 -1.59375 3.296875 -1.460938 3.921875 -1.515625 C 4.546875 -1.566406 4.992188 -1.800781 5.265625 -2.21875 C 5.546875 -2.644531 5.644531 -3.285156 5.5625 -4.140625 Z M 5.234375 -8.140625 "/></g></g></g><g fill="#070472" fill-opacity="1"><g transform="translate(185.180807, 90.377076)"><g><path d="M 0.78125 0.015625 L 0.9375 -7.65625 L 2.34375 -7.625 L 2.1875 0.046875 Z M 0.78125 0.015625 "/></g></g></g><g fill="#070472" fill-opacity="1"><g transform="translate(193.194872, 90.709584)"><g><path d="M 0.78125 0.09375 L 1.640625 -7.53125 L 3.03125 -7.375 L 2.3125 -0.984375 L 5.71875 -0.609375 L 5.46875 0.609375 Z M 0.78125 0.09375 "/></g></g></g><g fill="#070472" fill-opacity="1"><g transform="translate(203.612669, 92.093106)"><g><path d="M 0.765625 0.171875 L 2.5 -7.296875 L 4.71875 -6.78125 C 6.164062 -6.445312 7.1875 -5.878906 7.78125 -5.078125 C 8.382812 -4.285156 8.546875 -3.273438 8.265625 -2.046875 C 8.085938 -1.296875 7.769531 -0.671875 7.3125 -0.171875 C 6.851562 0.316406 6.285156 0.644531 5.609375 0.8125 C 4.929688 0.976562 4.1875 0.96875 3.375 0.78125 Z M 2.40625 -0.703125 L 3.59375 -0.4375 C 4.476562 -0.226562 5.195312 -0.285156 5.75 -0.609375 C 6.3125 -0.929688 6.6875 -1.503906 6.875 -2.328125 C 7.070312 -3.179688 6.984375 -3.867188 6.609375 -4.390625 C 6.242188 -4.921875 5.582031 -5.296875 4.625 -5.515625 L 3.578125 -5.75 Z M 2.40625 -0.703125 "/></g></g></g><g fill="#070472" fill-opacity="1"><g transform="translate(216.25124, 95.425295)"><g><path d="M 1.1875 0.515625 C 0.914062 0.421875 0.726562 0.257812 0.625 0.03125 C 0.53125 -0.1875 0.519531 -0.410156 0.59375 -0.640625 C 0.675781 -0.878906 0.820312 -1.050781 1.03125 -1.15625 C 1.25 -1.257812 1.492188 -1.265625 1.765625 -1.171875 C 2.023438 -1.085938 2.203125 -0.9375 2.296875 -0.71875 C 2.398438 -0.5 2.410156 -0.269531 2.328125 -0.03125 C 2.253906 0.195312 2.109375 0.363281 1.890625 0.46875 C 1.679688 0.582031 1.445312 0.597656 1.1875 0.515625 Z M 1.1875 0.515625 "/></g></g></g><g fill="#070472" fill-opacity="1"><g transform="translate(223.426252, 98.081598)"><g/></g></g><g fill="#070472" fill-opacity="1"><g transform="translate(230.405265, 101.235438)"><g><path d="M 2.734375 1.59375 C 1.953125 1.164062 1.4375 0.65625 1.1875 0.0625 C 0.9375 -0.519531 0.960938 -1.175781 1.265625 -1.90625 L 2.515625 -1.453125 C 2.191406 -0.566406 2.472656 0.113281 3.359375 0.59375 C 3.742188 0.800781 4.085938 0.882812 4.390625 0.84375 C 4.691406 0.8125 4.914062 0.65625 5.0625 0.375 C 5.207031 0.125 5.207031 -0.125 5.0625 -0.375 C 4.914062 -0.625 4.640625 -0.925781 4.234375 -1.28125 C 3.835938 -1.644531 3.519531 -1.988281 3.28125 -2.3125 C 3.050781 -2.632812 2.921875 -2.960938 2.890625 -3.296875 C 2.867188 -3.640625 2.972656 -4.023438 3.203125 -4.453125 C 3.421875 -4.835938 3.710938 -5.128906 4.078125 -5.328125 C 4.453125 -5.535156 4.867188 -5.628906 5.328125 -5.609375 C 5.785156 -5.585938 6.25 -5.445312 6.71875 -5.1875 C 7.34375 -4.851562 7.765625 -4.410156 7.984375 -3.859375 C 8.210938 -3.316406 8.203125 -2.738281 7.953125 -2.125 L 6.765625 -2.53125 C 7.003906 -3.269531 6.785156 -3.820312 6.109375 -4.1875 C 5.773438 -4.363281 5.457031 -4.421875 5.15625 -4.359375 C 4.863281 -4.296875 4.640625 -4.128906 4.484375 -3.859375 C 4.335938 -3.578125 4.320312 -3.304688 4.4375 -3.046875 C 4.550781 -2.796875 4.820312 -2.472656 5.25 -2.078125 C 5.632812 -1.742188 5.945312 -1.425781 6.1875 -1.125 C 6.4375 -0.820312 6.582031 -0.5 6.625 -0.15625 C 6.664062 0.1875 6.570312 0.5625 6.34375 0.96875 C 6.125 1.363281 5.828125 1.65625 5.453125 1.84375 C 5.085938 2.03125 4.671875 2.101562 4.203125 2.0625 C 3.734375 2.019531 3.242188 1.863281 2.734375 1.59375 Z M 2.734375 1.59375 "/></g></g></g><g fill="#070472" fill-opacity="1"><g transform="translate(240.186843, 106.864216)"><g><path d="M 6.8125 2.984375 C 6.269531 3.222656 5.703125 3.300781 5.109375 3.21875 C 4.523438 3.132812 3.960938 2.90625 3.421875 2.53125 C 2.773438 2.070312 2.304688 1.554688 2.015625 0.984375 C 1.734375 0.421875 1.628906 -0.175781 1.703125 -0.8125 C 1.785156 -1.445312 2.054688 -2.085938 2.515625 -2.734375 C 2.984375 -3.398438 3.53125 -3.882812 4.15625 -4.1875 C 4.78125 -4.488281 5.429688 -4.613281 6.109375 -4.5625 C 6.796875 -4.507812 7.457031 -4.257812 8.09375 -3.8125 C 8.632812 -3.4375 9.023438 -3.003906 9.265625 -2.515625 C 9.503906 -2.035156 9.609375 -1.5 9.578125 -0.90625 L 8.234375 -0.890625 C 8.285156 -1.296875 8.226562 -1.65625 8.0625 -1.96875 C 7.90625 -2.289062 7.664062 -2.5625 7.34375 -2.78125 C 6.945312 -3.070312 6.523438 -3.222656 6.078125 -3.234375 C 5.640625 -3.253906 5.210938 -3.15625 4.796875 -2.9375 C 4.378906 -2.71875 4.015625 -2.382812 3.703125 -1.9375 C 3.234375 -1.28125 3.039062 -0.648438 3.125 -0.046875 C 3.207031 0.554688 3.550781 1.070312 4.15625 1.5 C 4.488281 1.738281 4.851562 1.878906 5.25 1.921875 C 5.644531 1.972656 6.035156 1.90625 6.421875 1.71875 Z M 6.8125 2.984375 "/></g></g></g><g fill="#070472" fill-opacity="1"><g transform="translate(249.943984, 114.107702)"><g><path d="M -0.078125 -0.078125 L 7.484375 -3.5625 L 8.359375 -2.78125 L 5.5625 5.03125 L 4.5 4.0625 L 5.15625 2.3125 L 2.671875 0.0625 L 0.96875 0.875 Z M 3.8125 -0.484375 L 5.609375 1.125 L 6.75 -1.90625 Z M 3.8125 -0.484375 "/></g></g></g><g fill="#070472" fill-opacity="1"><g transform="translate(258.90578, 122.663685)"><g><path d="M 0.515625 0.59375 L 6.265625 -4.484375 L 7.203125 -3.4375 L 2.375 0.828125 L 4.625 3.390625 L 3.640625 4.125 Z M 0.515625 0.59375 "/></g></g></g><g fill="#070472" fill-opacity="1"><g transform="translate(265.682923, 130.731692)"><g><path d="M 8.5625 0.9375 L 6.515625 -1.96875 L 4.90625 -0.828125 L 6.859375 1.9375 L 5.875 2.640625 L 3.921875 -0.125 L 2.234375 1.078125 L 4.375 4.09375 L 3.328125 4.6875 L 0.453125 0.640625 L 6.71875 -3.796875 L 9.5625 0.234375 Z M 8.5625 0.9375 "/></g></g></g><g fill="#070472" fill-opacity="1"><g transform="translate(179.383469, 233.999985)"><g><path d="M 150.546875 27 C 146.097656 28.164062 142.148438 28.75 138.703125 28.75 C 135.265625 28.75 132.222656 28.535156 129.578125 28.109375 C 126.929688 27.679688 124.097656 26.859375 121.078125 25.640625 C 118.066406 24.421875 115.234375 23.019531 112.578125 21.4375 C 109.929688 19.851562 107.285156 17.894531 104.640625 15.5625 C 99.773438 11.644531 95.359375 7.410156 91.390625 2.859375 C 87.421875 -1.691406 79.769531 -10.238281 68.4375 -22.78125 C 57.113281 -35.332031 49.597656 -43.671875 45.890625 -47.796875 C 42.179688 -51.921875 39.320312 -54.09375 37.3125 -54.3125 L 37.3125 -55.890625 C 43.457031 -55.890625 47.5625 -56.019531 49.625 -56.28125 C 51.6875 -56.550781 53.878906 -57.03125 56.203125 -57.71875 C 58.535156 -58.40625 60.5 -59.332031 62.09375 -60.5 C 68.332031 -64.519531 71.453125 -71.191406 71.453125 -80.515625 C 71.453125 -88.242188 69.734375 -94.4375 66.296875 -99.09375 C 62.859375 -103.75 58.015625 -106.128906 51.765625 -106.234375 L 32.078125 -106.234375 L 32.078125 -11.59375 C 32.078125 -8.945312 33.054688 -6.617188 35.015625 -4.609375 C 36.972656 -2.597656 39.378906 -1.59375 42.234375 -1.59375 L 44.140625 -1.59375 L 44.296875 0 L 9.53125 0 L 9.53125 -1.59375 L 11.59375 -1.59375 C 14.238281 -1.59375 16.566406 -2.539062 18.578125 -4.4375 C 20.585938 -6.34375 21.644531 -8.675781 21.75 -11.4375 L 21.75 -99.5625 C 21.644531 -102.3125 20.613281 -104.664062 18.65625 -106.625 C 16.695312 -108.582031 14.34375 -109.5625 11.59375 -109.5625 L 9.53125 -109.5625 L 9.53125 -111.15625 L 52.40625 -111.15625 C 61.71875 -111.15625 69.207031 -108.535156 74.875 -103.296875 C 80.539062 -98.054688 83.375 -91.117188 83.375 -82.484375 C 83.375 -73.859375 80.78125 -66.445312 75.59375 -60.25 C 70.40625 -54.0625 64.050781 -50.96875 56.53125 -50.96875 C 56.53125 -50.96875 56.476562 -50.96875 56.375 -50.96875 C 59.96875 -47.15625 64.039062 -42.710938 68.59375 -37.640625 C 86.914062 -17.410156 98.671875 -4.707031 103.859375 0.46875 C 109.046875 5.65625 113.625 9.914062 117.59375 13.25 C 121.5625 16.59375 125.082031 19.054688 128.15625 20.640625 C 134.394531 24.023438 140.585938 25.71875 146.734375 25.71875 C 148.003906 25.71875 149.273438 25.613281 150.546875 25.40625 Z M 150.546875 27 "/></g></g></g></svg>