<svg xmlns="http://www.w3.org/2000/svg" xmlns:xlink="http://www.w3.org/1999/xlink" width="500" zoomAndPan="magnify" viewBox="0 0 375 374.999991" height="500" preserveAspectRatio="xMidYMid meet" version="1.0"><defs><g/><clipPath id="40388cdfbd"><path d="M 68.746094 72.921875 L 298.667969 72.921875 L 298.667969 302.84375 L 68.746094 302.84375 Z M 68.746094 72.921875 " clip-rule="nonzero"/></clipPath><clipPath id="fd48e3afe7"><path d="M 183.707031 72.921875 C 120.214844 72.921875 68.746094 124.390625 68.746094 187.882812 C 68.746094 251.375 120.214844 302.84375 183.707031 302.84375 C 247.199219 302.84375 298.667969 251.375 298.667969 187.882812 C 298.667969 124.390625 247.199219 72.921875 183.707031 72.921875 Z M 183.707031 72.921875 " clip-rule="nonzero"/></clipPath><clipPath id="0dc0b591af"><path d="M 0.746094 0.921875 L 230.667969 0.921875 L 230.667969 230.84375 L 0.746094 230.84375 Z M 0.746094 0.921875 " clip-rule="nonzero"/></clipPath><clipPath id="2323b340be"><path d="M 115.707031 0.921875 C 52.214844 0.921875 0.746094 52.390625 0.746094 115.882812 C 0.746094 179.375 52.214844 230.84375 115.707031 230.84375 C 179.199219 230.84375 230.667969 179.375 230.667969 115.882812 C 230.667969 52.390625 179.199219 0.921875 115.707031 0.921875 Z M 115.707031 0.921875 " clip-rule="nonzero"/></clipPath><clipPath id="4a6ee73899"><rect x="0" width="231" y="0" height="231"/></clipPath></defs><g clip-path="url(#40388cdfbd)"><g clip-path="url(#fd48e3afe7)"><g transform="matrix(1, 0, 0, 1, 68, 72)"><g clip-path="url(#4a6ee73899)"><g clip-path="url(#0dc0b591af)"><g clip-path="url(#2323b340be)"><path fill="#d2d2d8" d="M 0.746094 0.921875 L 230.667969 0.921875 L 230.667969 230.84375 L 0.746094 230.84375 Z M 0.746094 0.921875 " fill-opacity="1" fill-rule="nonzero"/></g></g></g></g></g></g><g fill="#070472" fill-opacity="1"><g transform="translate(134.63437, 266.383341)"><g><path d="M -9.21875 -79.5625 C -12.5 -83.476562 -14.140625 -87.367188 -14.140625 -91.234375 C -14.140625 -95.097656 -13.238281 -98.429688 -11.4375 -101.234375 C -9.632812 -104.035156 -6.722656 -106.414062 -2.703125 -108.375 C 1.316406 -110.332031 5.867188 -111.3125 10.953125 -111.3125 L 76.0625 -111.3125 C 79.34375 -111.3125 82.96875 -111.628906 86.9375 -112.265625 C 90.90625 -112.898438 93.6875 -113.535156 95.28125 -114.171875 L 95.28125 -94.171875 L 93.6875 -94.328125 L 93.6875 -97.03125 C 93.6875 -99.570312 92.785156 -101.765625 90.984375 -103.609375 C 89.179688 -105.460938 87.066406 -106.441406 84.640625 -106.546875 L 54.46875 -106.546875 L 54.46875 -11.4375 C 54.570312 -7.625 56.265625 -4.765625 59.546875 -2.859375 C 61.128906 -2.015625 62.820312 -1.59375 64.625 -1.59375 L 66.6875 -1.59375 L 66.6875 0 L 31.921875 0 L 31.921875 -1.59375 L 33.984375 -1.59375 C 36.734375 -1.59375 39.085938 -2.539062 41.046875 -4.4375 C 43.003906 -6.34375 44.035156 -8.625 44.140625 -11.28125 L 44.140625 -106.546875 L 10.953125 -106.546875 C 2.484375 -106.546875 -3.65625 -103.847656 -7.46875 -98.453125 C -9.476562 -95.703125 -10.484375 -92.816406 -10.484375 -89.796875 C -10.484375 -86.785156 -9.632812 -83.632812 -7.9375 -80.34375 Z M -9.21875 -79.5625 "/></g></g></g><g fill="#070472" fill-opacity="1"><g transform="translate(94.014255, 235.883305)"><g><path d="M 18.890625 -42.234375 C 13.390625 -35.035156 10.640625 -27.253906 10.640625 -18.890625 C 10.640625 -8.941406 14.820312 -1.21875 23.1875 4.28125 C 28.050781 7.5625 33.578125 9.203125 39.765625 9.203125 C 45.960938 9.203125 51.335938 7.988281 55.890625 5.5625 C 64.472656 1.113281 69.289062 -6.347656 70.34375 -16.828125 C 70.445312 -17.566406 70.5 -18.3125 70.5 -19.0625 C 70.5 -22.976562 69.414062 -27.210938 67.25 -31.765625 C 65.082031 -36.316406 61.5625 -40.492188 56.6875 -44.296875 L 28.109375 -66.859375 C 21.859375 -71.722656 18.734375 -78.019531 18.734375 -85.75 C 18.734375 -93.476562 21.222656 -100.015625 26.203125 -105.359375 C 31.179688 -110.703125 37.90625 -113.375 46.375 -113.375 C 50.601562 -113.375 55.207031 -112.847656 60.1875 -111.796875 L 66.53125 -111.796875 L 66.859375 -92.265625 L 65.265625 -92.265625 C 65.160156 -97.347656 63.332031 -101.34375 59.78125 -104.25 C 56.238281 -107.15625 51.789062 -108.609375 46.4375 -108.609375 C 41.09375 -108.609375 36.617188 -106.835938 33.015625 -103.296875 C 29.421875 -99.753906 27.625 -95.203125 27.625 -89.640625 C 27.625 -84.078125 29.957031 -79.445312 34.625 -75.75 L 64 -52.5625 C 75.644531 -43.351562 81.46875 -32.238281 81.46875 -19.21875 C 81.46875 -9.476562 77.601562 -1.113281 69.875 5.875 C 63.195312 11.90625 54.300781 14.921875 43.1875 14.921875 C 36.414062 14.921875 30.382812 13.648438 25.09375 11.109375 C 15.132812 6.453125 9.148438 -1.484375 7.140625 -12.703125 C 6.828125 -14.398438 6.671875 -16.546875 6.671875 -19.140625 C 6.671875 -21.734375 7.410156 -25.273438 8.890625 -29.765625 C 10.367188 -34.265625 13.226562 -38.789062 17.46875 -43.34375 Z M 18.890625 -42.234375 "/></g></g></g><g fill="#070472" fill-opacity="1"><g transform="translate(86.174925, 166.210933)"><g><path d="M 0.984375 -3.015625 C 0.734375 -2.148438 0.347656 -1.53125 -0.171875 -1.15625 C -0.703125 -0.789062 -1.351562 -0.679688 -2.125 -0.828125 L -1.953125 -2.15625 C -1.023438 -2.03125 -0.421875 -2.453125 -0.140625 -3.421875 C -0.015625 -3.835938 0 -4.1875 -0.09375 -4.46875 C -0.195312 -4.75 -0.398438 -4.9375 -0.703125 -5.03125 C -0.972656 -5.113281 -1.210938 -5.054688 -1.421875 -4.859375 C -1.640625 -4.671875 -1.882812 -4.335938 -2.15625 -3.859375 C -2.414062 -3.398438 -2.675781 -3.023438 -2.9375 -2.734375 C -3.207031 -2.441406 -3.507812 -2.242188 -3.84375 -2.140625 C -4.175781 -2.035156 -4.570312 -2.050781 -5.03125 -2.1875 C -5.457031 -2.3125 -5.804688 -2.535156 -6.078125 -2.859375 C -6.347656 -3.179688 -6.523438 -3.566406 -6.609375 -4.015625 C -6.691406 -4.472656 -6.65625 -4.960938 -6.5 -5.484375 C -6.300781 -6.160156 -5.957031 -6.664062 -5.46875 -7 C -4.976562 -7.332031 -4.40625 -7.4375 -3.75 -7.3125 L -3.90625 -6.09375 C -4.664062 -6.15625 -5.15625 -5.816406 -5.375 -5.078125 C -5.476562 -4.722656 -5.46875 -4.40625 -5.34375 -4.125 C -5.21875 -3.84375 -5.007812 -3.660156 -4.71875 -3.578125 C -4.40625 -3.484375 -4.132812 -3.519531 -3.90625 -3.6875 C -3.6875 -3.863281 -3.4375 -4.195312 -3.15625 -4.6875 C -2.894531 -5.132812 -2.640625 -5.507812 -2.390625 -5.8125 C -2.148438 -6.113281 -1.867188 -6.316406 -1.546875 -6.421875 C -1.222656 -6.535156 -0.835938 -6.53125 -0.390625 -6.40625 C 0.0351562 -6.269531 0.378906 -6.039062 0.640625 -5.71875 C 0.898438 -5.394531 1.0625 -5 1.125 -4.53125 C 1.195312 -4.070312 1.148438 -3.566406 0.984375 -3.015625 Z M 0.984375 -3.015625 "/></g></g></g><g fill="#070472" fill-opacity="1"><g transform="translate(89.608314, 155.459336)"><g><path d="M 1.484375 -7.28125 C 1.835938 -6.800781 2.035156 -6.265625 2.078125 -5.671875 C 2.117188 -5.078125 2.007812 -4.476562 1.75 -3.875 C 1.445312 -3.144531 1.039062 -2.578125 0.53125 -2.171875 C 0.03125 -1.773438 -0.53125 -1.550781 -1.15625 -1.5 C -1.789062 -1.457031 -2.472656 -1.585938 -3.203125 -1.890625 C -3.953125 -2.210938 -4.539062 -2.644531 -4.96875 -3.1875 C -5.40625 -3.726562 -5.664062 -4.335938 -5.75 -5.015625 C -5.84375 -5.691406 -5.734375 -6.390625 -5.421875 -7.109375 C -5.171875 -7.710938 -4.832031 -8.179688 -4.40625 -8.515625 C -3.988281 -8.859375 -3.484375 -9.070312 -2.890625 -9.15625 L -2.59375 -7.859375 C -3.007812 -7.828125 -3.351562 -7.695312 -3.625 -7.46875 C -3.90625 -7.25 -4.125 -6.960938 -4.28125 -6.609375 C -4.46875 -6.148438 -4.519531 -5.703125 -4.4375 -5.265625 C -4.363281 -4.828125 -4.175781 -4.425781 -3.875 -4.0625 C -3.570312 -3.695312 -3.164062 -3.410156 -2.65625 -3.203125 C -1.914062 -2.890625 -1.257812 -2.835938 -0.6875 -3.046875 C -0.125 -3.253906 0.300781 -3.695312 0.59375 -4.375 C 0.75 -4.75 0.804688 -5.132812 0.765625 -5.53125 C 0.734375 -5.925781 0.585938 -6.289062 0.328125 -6.625 Z M 1.484375 -7.28125 "/></g></g></g><g fill="#070472" fill-opacity="1"><g transform="translate(94.626443, 144.3902)"><g><path d="M -0.046875 0.09375 L -5.0625 -6.5625 L -4.46875 -7.59375 L 3.75 -6.5 L 3.03125 -5.25 L 1.171875 -5.53125 L -0.5 -2.640625 L 0.65625 -1.140625 Z M -1.28125 -3.640625 L -0.078125 -5.71875 L -3.28125 -6.203125 Z M -1.28125 -3.640625 "/></g></g></g><g fill="#070472" fill-opacity="1"><g transform="translate(101.098035, 133.825258)"><g><path d="M 0.46875 -0.625 L -5.703125 -5.171875 L -4.875 -6.3125 L 0.296875 -2.5 L 2.328125 -5.25 L 3.265625 -4.421875 Z M 0.46875 -0.625 "/></g></g></g><g fill="#070472" fill-opacity="1"><g transform="translate(107.553963, 125.497485)"><g><path d="M -0.890625 -8.578125 L -3.296875 -5.953125 L -1.859375 -4.625 L 0.4375 -7.125 L 1.34375 -6.296875 L -0.953125 -3.796875 L 0.5625 -2.40625 L 3.0625 -5.125 L 3.890625 -4.234375 L 0.53125 -0.578125 L -5.125 -5.765625 L -1.796875 -9.40625 Z M -0.890625 -8.578125 "/></g></g></g><g fill="#070472" fill-opacity="1"><g transform="translate(115.304466, 117.510651)"><g/></g></g><g fill="#070472" fill-opacity="1"><g transform="translate(121.151889, 112.478799)"><g><path d="M 1.078125 -0.703125 C 0.847656 -0.535156 0.613281 -0.46875 0.375 -0.5 C 0.132812 -0.53125 -0.0546875 -0.644531 -0.203125 -0.84375 C -0.359375 -1.039062 -0.421875 -1.257812 -0.390625 -1.5 C -0.367188 -1.738281 -0.242188 -1.941406 -0.015625 -2.109375 C 0.203125 -2.285156 0.425781 -2.351562 0.65625 -2.3125 C 0.894531 -2.28125 1.09375 -2.164062 1.25 -1.96875 C 1.394531 -1.769531 1.457031 -1.550781 1.4375 -1.3125 C 1.414062 -1.082031 1.296875 -0.878906 1.078125 -0.703125 Z M 1.078125 -0.703125 "/></g></g></g><g fill="#070472" fill-opacity="1"><g transform="translate(127.309269, 107.937014)"><g/></g></g><g fill="#070472" fill-opacity="1"><g transform="translate(133.780853, 103.838037)"><g><path d="M 1.96875 -9.765625 L 2.40625 -8.578125 L 0.3125 -7.46875 L 3.34375 -1.796875 L 2.109375 -1.125 L -0.921875 -6.796875 L -3.09375 -5.640625 L -3.6875 -6.734375 Z M 1.96875 -9.765625 "/></g></g></g><g fill="#070472" fill-opacity="1"><g transform="translate(143.745279, 98.802818)"><g><path d="M 5.859375 -3.78125 L 6.578125 -2.890625 C 6.472656 -2.734375 6.332031 -2.585938 6.15625 -2.453125 C 5.988281 -2.316406 5.800781 -2.207031 5.59375 -2.125 C 4.832031 -1.820312 4.113281 -1.914062 3.4375 -2.40625 L 1.78125 -3.578125 C 1.59375 -3.710938 1.425781 -3.785156 1.28125 -3.796875 C 1.144531 -3.816406 1.015625 -3.800781 0.890625 -3.75 L 0.828125 -3.734375 L 2 -0.796875 L 0.71875 -0.28125 L -2.109375 -7.40625 L 0.125 -8.296875 C 1.019531 -8.648438 1.769531 -8.734375 2.375 -8.546875 C 2.988281 -8.359375 3.429688 -7.9375 3.703125 -7.28125 C 3.847656 -6.882812 3.894531 -6.507812 3.84375 -6.15625 C 3.789062 -5.8125 3.644531 -5.492188 3.40625 -5.203125 C 3.164062 -4.910156 2.867188 -4.664062 2.515625 -4.46875 C 2.753906 -4.445312 3.007812 -4.335938 3.28125 -4.140625 L 4.171875 -3.546875 C 4.398438 -3.390625 4.597656 -3.296875 4.765625 -3.265625 C 4.929688 -3.234375 5.113281 -3.257812 5.3125 -3.34375 C 5.539062 -3.4375 5.722656 -3.582031 5.859375 -3.78125 Z M 0.453125 -7.1875 L -0.40625 -6.84375 L 0.421875 -4.765625 L 1.21875 -5.078125 C 1.757812 -5.296875 2.128906 -5.535156 2.328125 -5.796875 C 2.535156 -6.066406 2.566406 -6.390625 2.421875 -6.765625 C 2.140625 -7.453125 1.484375 -7.59375 0.453125 -7.1875 Z M 0.453125 -7.1875 "/></g></g></g><g fill="#070472" fill-opacity="1"><g transform="translate(154.731468, 94.728844)"><g><path d="M -0.109375 0.03125 L 1.078125 -8.234375 L 2.234375 -8.53125 L 7.25 -1.921875 L 5.859375 -1.5625 L 4.734375 -3.0625 L 1.515625 -2.203125 L 1.265625 -0.34375 Z M 1.6875 -3.46875 L 4 -4.09375 L 2.078125 -6.6875 Z M 1.6875 -3.46875 "/></g></g></g><g fill="#070472" fill-opacity="1"><g transform="translate(166.744473, 91.836924)"><g><path d="M 4.75 -8.390625 L 6.09375 -8.578125 L 7.125 -0.96875 L 5.90625 -0.796875 L 1.40625 -5.578125 L 2.125 -0.28125 L 0.78125 -0.109375 L -0.25 -7.71875 L 0.96875 -7.875 L 5.46875 -3.09375 Z M 4.75 -8.390625 "/></g></g></g><g fill="#070472" fill-opacity="1"><g transform="translate(179.577905, 90.436538)"><g><path d="M 3.171875 0.046875 C 2.273438 0.0546875 1.570312 -0.128906 1.0625 -0.515625 C 0.550781 -0.910156 0.253906 -1.5 0.171875 -2.28125 L 1.46875 -2.5 C 1.625 -1.582031 2.207031 -1.128906 3.21875 -1.140625 C 3.65625 -1.148438 3.992188 -1.242188 4.234375 -1.421875 C 4.472656 -1.609375 4.59375 -1.859375 4.59375 -2.171875 C 4.582031 -2.460938 4.453125 -2.675781 4.203125 -2.8125 C 3.960938 -2.957031 3.578125 -3.085938 3.046875 -3.203125 C 2.535156 -3.316406 2.097656 -3.457031 1.734375 -3.625 C 1.367188 -3.789062 1.085938 -4.015625 0.890625 -4.296875 C 0.703125 -4.585938 0.601562 -4.972656 0.59375 -5.453125 C 0.59375 -5.898438 0.703125 -6.300781 0.921875 -6.65625 C 1.148438 -7.007812 1.46875 -7.289062 1.875 -7.5 C 2.28125 -7.71875 2.753906 -7.832031 3.296875 -7.84375 C 4.003906 -7.851562 4.585938 -7.671875 5.046875 -7.296875 C 5.515625 -6.929688 5.789062 -6.421875 5.875 -5.765625 L 4.640625 -5.546875 C 4.484375 -6.296875 4.019531 -6.660156 3.25 -6.640625 C 2.875 -6.640625 2.570312 -6.535156 2.34375 -6.328125 C 2.113281 -6.128906 2 -5.875 2 -5.5625 C 2.007812 -5.238281 2.128906 -4.992188 2.359375 -4.828125 C 2.585938 -4.671875 2.984375 -4.53125 3.546875 -4.40625 C 4.046875 -4.289062 4.472656 -4.160156 4.828125 -4.015625 C 5.191406 -3.878906 5.472656 -3.671875 5.671875 -3.390625 C 5.878906 -3.117188 5.988281 -2.75 6 -2.28125 C 6 -1.832031 5.882812 -1.429688 5.65625 -1.078125 C 5.425781 -0.734375 5.097656 -0.460938 4.671875 -0.265625 C 4.242188 -0.0664062 3.742188 0.0351562 3.171875 0.046875 Z M 3.171875 0.046875 "/></g></g></g><g fill="#070472" fill-opacity="1"><g transform="translate(190.88583, 90.5439)"><g><path d="M 6.0625 -5.921875 L 2.734375 -6.21875 L 2.546875 -4.15625 L 5.703125 -3.875 L 5.578125 -2.65625 L 2.421875 -2.9375 L 2.140625 0.203125 L 0.78125 0.078125 L 1.484375 -7.5625 L 6.171875 -7.140625 Z M 6.0625 -5.921875 "/></g></g></g><g fill="#070472" fill-opacity="1"><g transform="translate(201.325668, 91.711658)"><g><path d="M 4.09375 0.96875 C 3.332031 0.8125 2.707031 0.53125 2.21875 0.125 C 1.738281 -0.28125 1.410156 -0.796875 1.234375 -1.421875 C 1.066406 -2.046875 1.066406 -2.742188 1.234375 -3.515625 C 1.398438 -4.296875 1.703125 -4.953125 2.140625 -5.484375 C 2.578125 -6.023438 3.113281 -6.40625 3.75 -6.625 C 4.394531 -6.84375 5.101562 -6.867188 5.875 -6.703125 C 6.5625 -6.554688 7.132812 -6.269531 7.59375 -5.84375 C 8.050781 -5.425781 8.363281 -4.910156 8.53125 -4.296875 C 8.707031 -3.679688 8.71875 -3 8.5625 -2.25 C 8.394531 -1.445312 8.085938 -0.78125 7.640625 -0.25 C 7.191406 0.269531 6.660156 0.640625 6.046875 0.859375 C 5.441406 1.078125 4.789062 1.113281 4.09375 0.96875 Z M 4.3125 -0.28125 C 4.757812 -0.1875 5.175781 -0.207031 5.5625 -0.34375 C 5.945312 -0.488281 6.28125 -0.75 6.5625 -1.125 C 6.84375 -1.5 7.046875 -1.972656 7.171875 -2.546875 C 7.328125 -3.304688 7.265625 -3.945312 6.984375 -4.46875 C 6.703125 -5 6.238281 -5.335938 5.59375 -5.484375 C 5.132812 -5.578125 4.695312 -5.546875 4.28125 -5.390625 C 3.875 -5.234375 3.523438 -4.972656 3.234375 -4.609375 C 2.953125 -4.253906 2.75 -3.800781 2.625 -3.25 C 2.457031 -2.457031 2.523438 -1.800781 2.828125 -1.28125 C 3.140625 -0.757812 3.632812 -0.425781 4.3125 -0.28125 Z M 4.3125 -0.28125 "/></g></g></g><g fill="#070472" fill-opacity="1"><g transform="translate(214.274451, 94.820544)"><g><path d="M 6.90625 0.96875 L 6.859375 2.109375 C 6.691406 2.148438 6.5 2.164062 6.28125 2.15625 C 6.0625 2.15625 5.84375 2.117188 5.625 2.046875 C 4.851562 1.785156 4.367188 1.238281 4.171875 0.40625 L 3.6875 -1.5625 C 3.632812 -1.78125 3.5625 -1.9375 3.46875 -2.03125 C 3.375 -2.132812 3.257812 -2.210938 3.125 -2.265625 L 3.0625 -2.28125 L 2.03125 0.703125 L 0.734375 0.25 L 3.234375 -7 L 5.5 -6.21875 C 6.414062 -5.894531 7.046875 -5.457031 7.390625 -4.90625 C 7.734375 -4.363281 7.789062 -3.757812 7.5625 -3.09375 C 7.425781 -2.695312 7.21875 -2.382812 6.9375 -2.15625 C 6.65625 -1.9375 6.332031 -1.789062 5.96875 -1.71875 C 5.601562 -1.644531 5.222656 -1.660156 4.828125 -1.765625 C 4.992188 -1.578125 5.113281 -1.320312 5.1875 -1 L 5.484375 0.03125 C 5.546875 0.300781 5.628906 0.5 5.734375 0.625 C 5.847656 0.757812 6.003906 0.863281 6.203125 0.9375 C 6.441406 1.019531 6.675781 1.03125 6.90625 0.96875 Z M 5.03125 -5.15625 L 4.15625 -5.453125 L 3.421875 -3.328125 L 4.234375 -3.046875 C 4.785156 -2.859375 5.222656 -2.800781 5.546875 -2.875 C 5.867188 -2.945312 6.097656 -3.171875 6.234375 -3.546875 C 6.472656 -4.253906 6.070312 -4.789062 5.03125 -5.15625 Z M 5.03125 -5.15625 "/></g></g></g><g fill="#070472" fill-opacity="1"><g transform="translate(225.244418, 98.83336)"><g><path d="M 0.671875 0.328125 L 4.359375 -6.390625 L 5.453125 -5.859375 L 5.328125 0.6875 L 10.46875 -3.34375 L 11.5625 -2.796875 L 8.328125 4.171875 L 7.125 3.5625 L 9.109375 -0.765625 L 4.953125 2.46875 L 4.015625 2 L 4.125 -3.234375 L 1.828125 0.921875 Z M 0.671875 0.328125 "/></g></g></g><g fill="#070472" fill-opacity="1"><g transform="translate(238.473174, 105.993021)"><g/></g></g><g fill="#070472" fill-opacity="1"><g transform="translate(244.838883, 110.351024)"><g><path d="M 0.953125 0.859375 C 0.734375 0.679688 0.609375 0.472656 0.578125 0.234375 C 0.546875 0.00390625 0.609375 -0.210938 0.765625 -0.421875 C 0.910156 -0.617188 1.101562 -0.734375 1.34375 -0.765625 C 1.582031 -0.804688 1.8125 -0.738281 2.03125 -0.5625 C 2.257812 -0.394531 2.382812 -0.195312 2.40625 0.03125 C 2.4375 0.269531 2.378906 0.488281 2.234375 0.6875 C 2.078125 0.894531 1.878906 1.015625 1.640625 1.046875 C 1.410156 1.085938 1.179688 1.023438 0.953125 0.859375 Z M 0.953125 0.859375 "/></g></g></g><g fill="#070472" fill-opacity="1"><g transform="translate(250.805366, 115.140718)"><g/></g></g><g fill="#070472" fill-opacity="1"><g transform="translate(256.428154, 120.33309)"><g><path d="M 5.640625 4.109375 L 5.0625 5.078125 C 4.882812 5.046875 4.703125 4.972656 4.515625 4.859375 C 4.328125 4.753906 4.160156 4.617188 4.015625 4.453125 C 3.453125 3.859375 3.273438 3.148438 3.484375 2.328125 L 3.96875 0.359375 C 4.039062 0.140625 4.054688 -0.03125 4.015625 -0.15625 C 3.972656 -0.289062 3.910156 -0.410156 3.828125 -0.515625 L 3.78125 -0.5625 L 1.46875 1.578125 L 0.53125 0.578125 L 6.15625 -4.640625 L 7.78125 -2.890625 C 8.4375 -2.179688 8.785156 -1.503906 8.828125 -0.859375 C 8.878906 -0.222656 8.644531 0.332031 8.125 0.8125 C 7.820312 1.101562 7.492188 1.285156 7.140625 1.359375 C 6.785156 1.441406 6.429688 1.421875 6.078125 1.296875 C 5.722656 1.179688 5.390625 0.988281 5.078125 0.71875 C 5.148438 0.957031 5.140625 1.238281 5.046875 1.5625 L 4.8125 2.609375 C 4.75 2.878906 4.734375 3.09375 4.765625 3.25 C 4.796875 3.414062 4.890625 3.582031 5.046875 3.75 C 5.210938 3.925781 5.410156 4.046875 5.640625 4.109375 Z M 6.875 -2.1875 L 6.25 -2.859375 L 4.59375 -1.328125 L 5.171875 -0.703125 C 5.566406 -0.265625 5.925781 -0.00390625 6.25 0.078125 C 6.570312 0.160156 6.878906 0.0664062 7.171875 -0.203125 C 7.722656 -0.710938 7.625 -1.375 6.875 -2.1875 Z M 6.875 -2.1875 "/></g></g></g><g fill="#070472" fill-opacity="1"><g transform="translate(264.189404, 129.135423)"><g><path d="M 8.578125 0.78125 L 6.46875 -2.09375 L 4.890625 -0.921875 L 6.90625 1.8125 L 5.921875 2.53125 L 3.90625 -0.203125 L 2.25 1.015625 L 4.453125 4 L 3.40625 4.625 L 0.46875 0.625 L 6.640625 -3.921875 L 9.5625 0.0625 Z M 8.578125 0.78125 "/></g></g></g><g fill="#070472" fill-opacity="1"><g transform="translate(270.549944, 138.191903)"><g><path d="M 1.078125 1.875 L 0.390625 0.671875 L 7.03125 -3.15625 L 8.375 -0.8125 C 8.875 0.0507812 9.078125 0.8125 8.984375 1.46875 C 8.898438 2.125 8.523438 2.640625 7.859375 3.015625 C 7.191406 3.398438 6.53125 3.457031 5.875 3.1875 C 5.21875 2.914062 4.617188 2.304688 4.078125 1.359375 L 3.546875 0.453125 Z M 7.359375 -0.265625 L 6.71875 -1.375 L 4.546875 -0.125 L 5.109375 0.859375 C 5.429688 1.410156 5.753906 1.765625 6.078125 1.921875 C 6.410156 2.078125 6.773438 2.046875 7.171875 1.828125 C 7.546875 1.609375 7.742188 1.328125 7.765625 0.984375 C 7.785156 0.648438 7.648438 0.234375 7.359375 -0.265625 Z M 7.359375 -0.265625 "/></g></g></g><g fill="#070472" fill-opacity="1"><g transform="translate(276.138531, 148.477739)"><g><path d="M 8.203125 2.671875 L 6.78125 -0.59375 L 4.96875 0.1875 L 6.328125 3.28125 L 5.21875 3.765625 L 3.859375 0.671875 L 1.96875 1.5 L 3.453125 4.890625 L 2.296875 5.265625 L 0.3125 0.71875 L 7.34375 -2.34375 L 9.3125 2.1875 Z M 8.203125 2.671875 "/></g></g></g><g fill="#070472" fill-opacity="1"><g transform="translate(280.327933, 158.71342)"><g><path d="M -0.03125 -0.109375 L 8.265625 0.78125 L 8.609375 1.921875 L 2.1875 7.171875 L 1.765625 5.796875 L 3.234375 4.625 L 2.265625 1.421875 L 0.375 1.25 Z M 3.53125 1.5625 L 4.234375 3.859375 L 6.78125 1.84375 Z M 3.53125 1.5625 "/></g></g></g><g fill="#070472" fill-opacity="1"><g transform="translate(283.627695, 170.642649)"><g><path d="M 8.671875 4.859375 L 7.4375 4.921875 L 7 2.578125 L 0.671875 3.734375 L 0.421875 2.359375 L 6.75 1.203125 L 6.3125 -1.21875 L 7.53125 -1.4375 Z M 8.671875 4.859375 "/></g></g></g><g fill="#070472" fill-opacity="1"><g transform="translate(179.383469, 233.999985)"><g><path d="M 150.546875 27 C 146.097656 28.164062 142.148438 28.75 138.703125 28.75 C 135.265625 28.75 132.222656 28.535156 129.578125 28.109375 C 126.929688 27.679688 124.097656 26.859375 121.078125 25.640625 C 118.066406 24.421875 115.234375 23.019531 112.578125 21.4375 C 109.929688 19.851562 107.285156 17.894531 104.640625 15.5625 C 99.773438 11.644531 95.359375 7.410156 91.390625 2.859375 C 87.421875 -1.691406 79.769531 -10.238281 68.4375 -22.78125 C 57.113281 -35.332031 49.597656 -43.671875 45.890625 -47.796875 C 42.179688 -51.921875 39.320312 -54.09375 37.3125 -54.3125 L 37.3125 -55.890625 C 43.457031 -55.890625 47.5625 -56.019531 49.625 -56.28125 C 51.6875 -56.550781 53.878906 -57.03125 56.203125 -57.71875 C 58.535156 -58.40625 60.5 -59.332031 62.09375 -60.5 C 68.332031 -64.519531 71.453125 -71.191406 71.453125 -80.515625 C 71.453125 -88.242188 69.734375 -94.4375 66.296875 -99.09375 C 62.859375 -103.75 58.015625 -106.128906 51.765625 -106.234375 L 32.078125 -106.234375 L 32.078125 -11.59375 C 32.078125 -8.945312 33.054688 -6.617188 35.015625 -4.609375 C 36.972656 -2.597656 39.378906 -1.59375 42.234375 -1.59375 L 44.140625 -1.59375 L 44.296875 0 L 9.53125 0 L 9.53125 -1.59375 L 11.59375 -1.59375 C 14.238281 -1.59375 16.566406 -2.539062 18.578125 -4.4375 C 20.585938 -6.34375 21.644531 -8.675781 21.75 -11.4375 L 21.75 -99.5625 C 21.644531 -102.3125 20.613281 -104.664062 18.65625 -106.625 C 16.695312 -108.582031 14.34375 -109.5625 11.59375 -109.5625 L 9.53125 -109.5625 L 9.53125 -111.15625 L 52.40625 -111.15625 C 61.71875 -111.15625 69.207031 -108.535156 74.875 -103.296875 C 80.539062 -98.054688 83.375 -91.117188 83.375 -82.484375 C 83.375 -73.859375 80.78125 -66.445312 75.59375 -60.25 C 70.40625 -54.0625 64.050781 -50.96875 56.53125 -50.96875 C 56.53125 -50.96875 56.476562 -50.96875 56.375 -50.96875 C 59.96875 -47.15625 64.039062 -42.710938 68.59375 -37.640625 C 86.914062 -17.410156 98.671875 -4.707031 103.859375 0.46875 C 109.046875 5.65625 113.625 9.914062 117.59375 13.25 C 121.5625 16.59375 125.082031 19.054688 128.15625 20.640625 C 134.394531 24.023438 140.585938 25.71875 146.734375 25.71875 C 148.003906 25.71875 149.273438 25.613281 150.546875 25.40625 Z M 150.546875 27 "/></g></g></g></svg>